<svg width="1280" height="980" viewBox="0 0 1280 980" fill="none" xmlns="http://www.w3.org/2000/svg">
  <defs>
    <linearGradient id="bg" x1="132" y1="86" x2="1110" y2="892" gradientUnits="userSpaceOnUse">
      <stop stop-color="#FCFEFF"/>
      <stop offset="1" stop-color="#EDF7FC"/>
    </linearGradient>
    <linearGradient id="panel" x1="674" y1="246" x2="1020" y2="676" gradientUnits="userSpaceOnUse">
      <stop stop-color="#FDFEFF"/>
      <stop offset="1" stop-color="#E7F4FA"/>
    </linearGradient>
  </defs>
  <rect width="1280" height="980" rx="46" fill="url(#bg)"/>
  <circle cx="998" cy="176" r="86" fill="#E6F4FB"/>
  <rect x="712" y="210" width="414" height="342" rx="34" fill="url(#panel)"/>
  <rect x="760" y="268" width="298" height="18" rx="9" fill="#D8ECF6"/>
  <rect x="760" y="310" width="224" height="18" rx="9" fill="#E3F2F9"/>
  <rect x="760" y="396" width="204" height="18" rx="9" fill="#D5EBF6"/>
  <rect x="760" y="438" width="150" height="18" rx="9" fill="#E4F3F9"/>
  <rect x="760" y="474" width="232" height="18" rx="9" fill="#DCEFF8"/>
  <rect x="1006" y="384" width="38" height="128" rx="19" fill="#0F6188"/>
  <circle cx="318" cy="350" r="92" fill="#F0C6A5"/>
  <path d="M222 338C240 220 380 212 404 340C414 250 360 172 318 172C270 172 214 252 222 338Z" fill="#294A66"/>
  <rect x="220" y="458" width="220" height="232" rx="56" fill="#567EA4"/>
  <circle cx="594" cy="422" r="74" fill="#F1C7A4"/>
  <path d="M518 414C534 318 654 314 670 420C678 350 634 286 592 286C550 286 508 346 518 414Z" fill="#183E59"/>
  <rect x="520" y="510" width="170" height="178" rx="42" fill="#7DA9C9"/>
  <rect x="454" y="492" width="334" height="198" rx="34" fill="#FDFEFF"/>
  <rect x="490" y="540" width="220" height="18" rx="9" fill="#D6EAF6"/>
  <rect x="490" y="582" width="162" height="18" rx="9" fill="#E2F1F8"/>
  <rect x="490" y="624" width="184" height="16" rx="8" fill="#D9EEF8"/>
  <circle cx="1010" cy="704" r="96" fill="#F4FAFD"/>
  <rect x="880" y="642" width="156" height="28" rx="14" fill="#D7ECF7"/>
  <rect x="880" y="692" width="194" height="28" rx="14" fill="#C7E3F1"/>
  <rect x="880" y="742" width="142" height="28" rx="14" fill="#E3F1F8"/>
  <path d="M1058 706L1078 726L1114 684" stroke="#0F6188" stroke-width="14" stroke-linecap="round" stroke-linejoin="round"/>
</svg>
